<?xml version="1.0" encoding="utf-8"?>
<!-- Generator: Adobe Illustrator 19.1.0, SVG Export Plug-In . SVG Version: 6.00 Build 0)  -->
<svg version="1.1" id="Layer_1" xmlns="http://www.w3.org/2000/svg" xmlns:xlink="http://www.w3.org/1999/xlink" x="0px" y="0px"
	 viewBox="0 0 210.2 10.3" style="enable-background:new 0 0 210.2 10.3;" xml:space="preserve">
<style type="text/css">
	.st0{fill:#FFFFFF;}
</style>
<g>
	<path class="st0" d="M7.2,10.2L6.7,8.3H3.5L3,10.2H0l3.3-10h3.6l3.3,10H7.2z M6.2,6.1L5.7,4.4C5.6,4.1,5.5,3.6,5.4,3S5.1,2,5.1,1.8
		C5,2,5,2.4,4.8,2.9S4.4,4.5,4,6.1H6.2z"/>
	<path class="st0" d="M18.6,10.2h-5.9v-10h5.9v2.2h-3.2v1.6h3v2.2h-3V8h3.2V10.2z"/>
	<path class="st0" d="M24.4,6.5v3.6h-2.7v-10H25c2.7,0,4.1,1,4.1,3c0,1.2-0.6,2.1-1.7,2.7l2.9,4.4h-3.1l-2.1-3.6H24.4z M24.4,4.5
		h0.5c0.9,0,1.4-0.4,1.4-1.3c0-0.7-0.5-1-1.4-1h-0.5V4.5z"/>
	<path class="st0" d="M42,5.1c0,1.7-0.4,3-1.2,3.8s-2,1.3-3.6,1.3c-1.6,0-2.8-0.4-3.6-1.3s-1.3-2.2-1.3-3.8c0-1.7,0.4-2.9,1.2-3.8
		s2-1.3,3.6-1.3c1.6,0,2.8,0.4,3.6,1.3S42,3.5,42,5.1z M35.1,5.1c0,1.9,0.7,2.9,2,2.9c0.7,0,1.2-0.2,1.5-0.7s0.5-1.2,0.5-2.2
		c0-1-0.2-1.7-0.5-2.2s-0.8-0.7-1.5-0.7C35.8,2.2,35.1,3.2,35.1,5.1z"/>
	<path class="st0" d="M49.2,4.3h4.3v5.4c-1.2,0.4-2.5,0.6-3.9,0.6c-1.5,0-2.7-0.4-3.6-1.3s-1.3-2.2-1.3-3.8c0-1.6,0.5-2.9,1.4-3.8
		S48.4,0,50,0c0.6,0,1.2,0.1,1.8,0.2s1,0.3,1.5,0.5l-0.9,2.1c-0.7-0.4-1.5-0.5-2.4-0.5c-0.8,0-1.4,0.3-1.8,0.8s-0.6,1.2-0.6,2.2
		c0,0.9,0.2,1.6,0.6,2.1s1,0.7,1.7,0.7c0.4,0,0.8,0,1.1-0.1V6.4h-1.8V4.3z"/>
	<path class="st0" d="M62.9,10.2h-5.9v-10h5.9v2.2h-3.2v1.6h3v2.2h-3V8h3.2V10.2z"/>
	<path class="st0" d="M72.1,10.2l-0.5-1.9h-3.2l-0.5,1.9h-3l3.3-10h3.6l3.3,10H72.1z M71.1,6.1l-0.4-1.6c-0.1-0.4-0.2-0.8-0.4-1.4
		S70.1,2,70,1.8c0,0.2-0.1,0.6-0.2,1.1S69.4,4.5,69,6.1H71.1z"/>
	<path class="st0" d="M80.3,6.5v3.6h-2.7v-10h3.3c2.7,0,4.1,1,4.1,3c0,1.2-0.6,2.1-1.7,2.7l2.9,4.4h-3.1L81,6.5H80.3z M80.3,4.5h0.5
		c0.9,0,1.4-0.4,1.4-1.3c0-0.7-0.5-1-1.4-1h-0.5V4.5z"/>
	<path class="st0" d="M98.2,10.2l-3.4-8.9h-0.1c0.1,0.7,0.1,1.5,0.1,2.5v6.4h-1.1v-10h1.8l3.2,8.2h0.1l3.2-8.2h1.7v10h-1.2V3.7
		c0-0.7,0-1.5,0.1-2.4h-0.1l-3.4,8.8H98.2z"/>
	<path class="st0" d="M115.1,5.1c0,1.6-0.4,2.9-1.2,3.8s-1.9,1.4-3.4,1.4c-1.5,0-2.6-0.5-3.4-1.4s-1.2-2.2-1.2-3.8
		c0-1.6,0.4-2.9,1.2-3.8S109,0,110.5,0c1.4,0,2.6,0.5,3.4,1.4S115.1,3.5,115.1,5.1z M107.1,5.1c0,1.4,0.3,2.4,0.9,3.1s1.4,1,2.5,1
		c1.1,0,1.9-0.3,2.5-1s0.8-1.7,0.8-3.1c0-1.3-0.3-2.4-0.8-3.1s-1.4-1-2.5-1c-1.1,0-1.9,0.3-2.5,1S107.1,3.8,107.1,5.1z"/>
	<path class="st0" d="M117.3,0.2h2.8c1.3,0,2.3,0.2,2.9,0.6s0.9,1,0.9,1.9c0,0.6-0.2,1.1-0.5,1.5s-0.8,0.6-1.4,0.7v0.1
		c1.5,0.3,2.3,1.1,2.3,2.4c0,0.9-0.3,1.6-0.9,2.1s-1.4,0.8-2.5,0.8h-3.5V0.2z M118.5,4.4h1.9c0.8,0,1.4-0.1,1.8-0.4s0.5-0.7,0.5-1.3
		c0-0.6-0.2-1-0.6-1.2s-1-0.4-1.9-0.4h-1.7V4.4z M118.5,5.4v3.7h2.1c0.8,0,1.4-0.2,1.8-0.5s0.6-0.8,0.6-1.5c0-0.6-0.2-1.1-0.6-1.4
		s-1.1-0.4-1.9-0.4H118.5z"/>
	<path class="st0" d="M126.4,10.2v-10h1.2v10H126.4z"/>
	<path class="st0" d="M130.3,10.2v-10h1.2v8.9h4.4v1.1H130.3z"/>
	<path class="st0" d="M143.1,10.2h-5.6v-10h5.6v1h-4.4v3.2h4.1v1h-4.1v3.7h4.4V10.2z"/>
	<path class="st0" d="M154.6,7.5c0,0.9-0.3,1.6-1,2.1s-1.5,0.7-2.6,0.7c-1.2,0-2.1-0.2-2.7-0.5V8.7c0.4,0.2,0.9,0.3,1.3,0.4
		s1,0.2,1.4,0.2c0.8,0,1.4-0.1,1.8-0.4s0.6-0.7,0.6-1.2c0-0.3-0.1-0.6-0.2-0.9s-0.4-0.4-0.7-0.6s-0.8-0.4-1.5-0.6
		c-0.9-0.3-1.6-0.7-2-1.2s-0.6-1.1-0.6-1.8c0-0.8,0.3-1.4,0.9-1.8s1.3-0.7,2.3-0.7c1,0,1.9,0.2,2.7,0.5l-0.4,1
		c-0.8-0.3-1.6-0.5-2.4-0.5c-0.6,0-1.1,0.1-1.4,0.4s-0.5,0.6-0.5,1.1c0,0.3,0.1,0.6,0.2,0.9s0.3,0.4,0.6,0.6s0.8,0.4,1.4,0.6
		c1,0.4,1.8,0.8,2.2,1.2S154.6,6.8,154.6,7.5z"/>
	<path class="st0" d="M162.2,10.2h-5.6v-10h5.6v1h-4.4v3.2h4.1v1h-4.1v3.7h4.4V10.2z"/>
	<path class="st0" d="M168.7,1.1c-1.1,0-2,0.4-2.6,1.1s-1,1.7-1,3c0,1.3,0.3,2.3,0.9,3c0.6,0.7,1.5,1.1,2.6,1.1
		c0.7,0,1.5-0.1,2.4-0.4v1c-0.7,0.3-1.5,0.4-2.6,0.4c-1.5,0-2.6-0.4-3.4-1.3s-1.2-2.2-1.2-3.8c0-1,0.2-1.9,0.6-2.7
		c0.4-0.8,0.9-1.4,1.7-1.8c0.7-0.4,1.6-0.6,2.6-0.6c1,0,2,0.2,2.7,0.6l-0.5,1C170.2,1.2,169.5,1.1,168.7,1.1z"/>
	<path class="st0" d="M180.8,0.2v6.5c0,1.1-0.3,2-1,2.7c-0.7,0.7-1.6,1-2.8,1s-2.1-0.3-2.8-1c-0.7-0.7-1-1.6-1-2.7V0.2h1.2v6.5
		c0,0.8,0.2,1.5,0.7,1.9c0.5,0.4,1.1,0.7,2,0.7c0.8,0,1.5-0.2,1.9-0.7c0.5-0.4,0.7-1.1,0.7-1.9V0.2H180.8z"/>
	<path class="st0" d="M184.6,6v4.2h-1.2v-10h2.7c1.2,0,2.1,0.2,2.7,0.7c0.6,0.5,0.9,1.2,0.9,2.1c0,1.3-0.7,2.2-2,2.7l2.7,4.5h-1.4
		L186.7,6H184.6z M184.6,5h1.6c0.8,0,1.4-0.2,1.8-0.5s0.6-0.8,0.6-1.5c0-0.7-0.2-1.1-0.6-1.4s-1-0.4-1.9-0.4h-1.5V5z"/>
	<path class="st0" d="M192.1,10.2v-10h1.2v10H192.1z"/>
	<path class="st0" d="M199.1,10.2h-1.2v-9h-3.2v-1h7.5v1h-3.2V10.2z"/>
	<path class="st0" d="M206.3,5.2l2.7-5h1.3l-3.3,6.1v3.9h-1.2V6.3l-3.3-6.2h1.3L206.3,5.2z"/>
</g>
</svg>
